<?xml version="1.0" encoding="iso-8859-1"?>
<!-- Generator: Adobe Illustrator 19.1.0, SVG Export Plug-In . SVG Version: 6.00 Build 0)  -->
<svg xmlns="http://www.w3.org/2000/svg" xmlns:xlink="http://www.w3.org/1999/xlink" version="1.1" id="Capa_1" x="0px" y="0px" viewBox="0 0 407.934 407.934" style="enable-background:new 0 0 407.934 407.934;" xml:space="preserve" width="512px" height="512px">
<g>
	<g>
		<path d="M161.401,183.151h84.595v39.746h-76.27c3.399,7.881,5.103,15.757,5.103,23.633    c0,15.576-3.718,32.05-11.145,49.414c-7.432,17.368-19.651,35.093-36.658,53.174c14.141-3.936,27.032-5.908,38.672-5.908    c14.858,0,31.597,2.241,50.22,6.714c30.791,7.344,51.65,11.011,62.573,11.011c13.247,0,30.435-5.01,51.562-15.039l15.576,44.312    c-16.475,6.982-29.23,11.548-38.27,13.696c-9.043,2.148-18.039,3.223-26.989,3.223c-7.52,0-15.132-0.718-22.827-2.148    c-4.834-0.898-16.429-4.163-34.778-9.802c-18.354-5.641-30.212-8.997-35.583-10.071c-8.417-1.431-16.831-2.148-25.244-2.148    c-12.891,0-26.633,2.241-41.223,6.714c-14.594,4.478-27.888,10.566-39.88,18.262l-18.53-46.46    c17.188-9.487,31.777-23.05,43.774-40.687c11.993-17.632,17.993-39.162,17.993-64.587c0-10.917-1.523-22.021-4.565-33.3H66.87    v-39.746h41.357c-5.908-20.049-9.668-34.686-11.279-43.909c-1.611-9.219-2.417-18.215-2.417-26.989    c0-37.236,13.784-66.333,41.357-87.28C158.086,8.326,184.941,0,216.454,0c32.402,0,59.124,8.908,80.163,26.722    c21.036,17.816,33.973,42.834,38.807,75.061l-48.071,7.251c-2.686-21.484-10.7-38.403-24.036-50.757    c-13.34-12.354-29.318-18.53-47.937-18.53c-19.873,0-36.389,6.403-49.548,19.202c-13.159,12.802-19.739,28.244-19.739,46.325    C146.094,125.143,151.196,151.105,161.401,183.151L161.401,183.151z" fill="#920c00"/>
	</g>
	<g>
	</g>
	<g>
	</g>
	<g>
	</g>
	<g>
	</g>
	<g>
	</g>
	<g>
	</g>
	<g>
	</g>
	<g>
	</g>
	<g>
	</g>
	<g>
	</g>
	<g>
	</g>
	<g>
	</g>
	<g>
	</g>
	<g>
	</g>
	<g>
	</g>
</g>
<g>
</g>
<g>
</g>
<g>
</g>
<g>
</g>
<g>
</g>
<g>
</g>
<g>
</g>
<g>
</g>
<g>
</g>
<g>
</g>
<g>
</g>
<g>
</g>
<g>
</g>
<g>
</g>
<g>
</g>
</svg>
